<svg width="40" height="40" viewBox="0 0 40 40" fill="none" xmlns="http://www.w3.org/2000/svg">
<path d="M36.375 10.6245H29.4688C29.3059 8.9223 28.5145 7.34185 27.2491 6.19171C25.9836 5.04157 24.335 4.4043 22.625 4.4043C20.915 4.4043 19.2664 5.04157 18.0009 6.19171C16.7355 7.34185 15.9441 8.9223 15.7812 10.6245H8.875C8.37772 10.6245 7.90081 10.8221 7.54917 11.1737C7.19754 11.5253 7 12.0023 7 12.4995V32.4995C7 32.9968 7.19754 33.4737 7.54917 33.8254C7.90081 34.177 8.37772 34.3745 8.875 34.3745H36.375C36.8723 34.3745 37.3492 34.177 37.7008 33.8254C38.0525 33.4737 38.25 32.9968 38.25 32.4995V12.4995C38.25 12.0023 38.0525 11.5253 37.7008 11.1737C37.3492 10.8221 36.8723 10.6245 36.375 10.6245ZM22.625 5.62454C24.0083 5.62708 25.3424 6.13783 26.3737 7.05968C27.405 7.98153 28.0616 9.25022 28.2188 10.6245H17.0312C17.1883 9.25022 17.845 7.98153 18.8763 7.05968C19.9076 6.13783 21.2417 5.62708 22.625 5.62454ZM37 32.4995C37 32.6653 36.9342 32.8243 36.8169 32.9415C36.6997 33.0587 36.5408 33.1245 36.375 33.1245H8.875C8.70924 33.1245 8.55027 33.0587 8.43306 32.9415C8.31585 32.8243 8.25 32.6653 8.25 32.4995V12.4995C8.25 12.3338 8.31585 12.1748 8.43306 12.0576C8.55027 11.9404 8.70924 11.8745 8.875 11.8745H15.75V16.2495C15.75 16.4153 15.8158 16.5743 15.9331 16.6915C16.0503 16.8087 16.2092 16.8745 16.375 16.8745C16.5408 16.8745 16.6997 16.8087 16.8169 16.6915C16.9342 16.5743 17 16.4153 17 16.2495V11.8745H28.25V16.2495C28.25 16.4153 28.3158 16.5743 28.4331 16.6915C28.5503 16.8087 28.7092 16.8745 28.875 16.8745C29.0408 16.8745 29.1997 16.8087 29.3169 16.6915C29.4342 16.5743 29.5 16.4153 29.5 16.2495V11.8745H36.375C36.5408 11.8745 36.6997 11.9404 36.8169 12.0576C36.9342 12.1748 37 12.3338 37 12.4995V32.4995Z" fill="white"/>
</svg>
