<svg width="24" height="24" viewBox="0 0 24 24" fill="none" xmlns="http://www.w3.org/2000/svg">
<path fill-rule="evenodd" clip-rule="evenodd" d="M12.0003 2.5C8.96275 2.5 6.50037 4.96245 6.50037 8C6.50037 9.88946 7.45313 11.5564 8.90443 12.5466C5.53988 13.7791 3.11629 16.9629 3.00424 20.7277C2.99192 21.1417 3.31757 21.4873 3.7316 21.4997C4.14563 21.512 4.49126 21.1863 4.50358 20.7723C4.62372 16.7357 7.93422 13.5 12.0002 13.5C16.0662 13.5 19.3767 16.7357 19.4968 20.7723C19.5091 21.1863 19.8548 21.512 20.2688 21.4997C20.6828 21.4873 21.0085 21.1417 20.9961 20.7277C20.8841 16.963 18.4606 13.7791 15.0961 12.5466C16.5474 11.5564 17.5002 9.88949 17.5002 8C17.5002 4.96245 15.0378 2.5 12.0003 2.5ZM8.00037 8C8.00037 5.79085 9.7912 4 12.0003 4C14.2094 4 16.0002 5.79085 16.0002 8C16.0002 10.2092 14.2094 12 12.0003 12C9.7912 12 8.00037 10.2092 8.00037 8Z" fill="#000000"/>
</svg>
