<svg width="10" height="6" viewBox="0 0 10 6" fill="none" xmlns="http://www.w3.org/2000/svg">
<path d="M0.161329 1.20867L3.93046 5.58944C4.03963 5.7144 4.19579 5.81804 4.38339 5.89007C4.57099 5.9621 4.7835 6 4.99978 6C5.21607 6 5.42858 5.9621 5.61618 5.89007C5.80378 5.81804 5.95993 5.7144 6.06911 5.58944L9.83824 1.20867C9.94417 1.08741 10 0.949473 10 0.809011C10 0.668548 9.94417 0.530614 9.83824 0.409356C9.73027 0.283778 9.57434 0.179684 9.38642 0.107753C9.19851 0.0358229 8.98538 -0.00135372 8.76891 3.7697e-05L1.23065 3.78618e-05C1.01433 -0.00125102 0.801381 0.0359742 0.613631 0.107899C0.425882 0.179825 0.27008 0.283864 0.16219 0.409356C0.0561266 0.530563 0.00014977 0.668471 -1.81527e-06 0.808933C-0.0001534 0.949396 0.0555279 1.08736 0.161329 1.20867Z" fill="#D26363"/>
</svg>
