<svg width="65" height="19" viewBox="0 0 65 19" fill="none" xmlns="http://www.w3.org/2000/svg">
<path d="M5.152 1.364C6.704 1.364 7.984 1.556 8.992 1.94C10 2.308 10.752 2.876 11.248 3.644C11.744 4.396 11.992 5.348 11.992 6.5C11.992 7.284 11.84 7.972 11.536 8.564C11.248 9.14 10.856 9.636 10.36 10.052C9.88 10.452 9.36 10.78 8.8 11.036L13.84 18.5H9.808L5.728 11.924H3.784V18.5H0.16V1.364H5.152ZM4.888 4.34H3.784V8.972H4.96C5.76 8.972 6.408 8.884 6.904 8.708C7.4 8.532 7.76 8.268 7.984 7.916C8.208 7.548 8.32 7.108 8.32 6.596C8.32 6.052 8.192 5.62 7.936 5.3C7.696 4.964 7.32 4.724 6.808 4.58C6.312 4.42 5.672 4.34 4.888 4.34ZM19.2918 18.5H15.7158V0.259999H19.2918V18.5ZM28.4043 5.132C30.1643 5.132 31.5083 5.516 32.4363 6.284C33.3803 7.036 33.8523 8.196 33.8523 9.764V18.5H31.3563L30.6603 16.724H30.5643C30.1963 17.188 29.8123 17.572 29.4123 17.876C29.0283 18.18 28.5803 18.396 28.0683 18.524C27.5723 18.668 26.9563 18.74 26.2203 18.74C25.4523 18.74 24.7563 18.596 24.1323 18.308C23.5243 18.004 23.0443 17.548 22.6923 16.94C22.3403 16.316 22.1643 15.532 22.1643 14.588C22.1643 13.196 22.6523 12.172 23.6283 11.516C24.6043 10.844 26.0683 10.476 28.0203 10.412L30.3003 10.34V9.764C30.3003 9.076 30.1163 8.572 29.7483 8.252C29.3963 7.932 28.9003 7.772 28.2603 7.772C27.6203 7.772 26.9963 7.868 26.3883 8.06C25.7803 8.236 25.1723 8.46 24.5643 8.732L23.3883 6.308C24.0923 5.94 24.8683 5.652 25.7163 5.444C26.5803 5.236 27.4763 5.132 28.4043 5.132ZM28.9083 12.476C27.7563 12.508 26.9563 12.716 26.5083 13.1C26.0603 13.484 25.8363 13.988 25.8363 14.612C25.8363 15.156 25.9963 15.548 26.3163 15.788C26.6363 16.012 27.0523 16.124 27.5643 16.124C28.3323 16.124 28.9803 15.9 29.5083 15.452C30.0363 14.988 30.3003 14.34 30.3003 13.508V12.428L28.9083 12.476ZM44.9526 5.156C46.3606 5.156 47.4886 5.54 48.3366 6.308C49.1846 7.06 49.6086 8.276 49.6086 9.956V18.5H46.0326V10.844C46.0326 9.9 45.8646 9.196 45.5286 8.732C45.1926 8.252 44.6566 8.012 43.9206 8.012C42.8326 8.012 42.0886 8.388 41.6886 9.14C41.2886 9.876 41.0886 10.94 41.0886 12.332V18.5H37.5126V5.396H40.2486L40.7286 7.076H40.9206C41.2086 6.628 41.5606 6.268 41.9766 5.996C42.3926 5.708 42.8566 5.5 43.3686 5.372C43.8806 5.228 44.4086 5.156 44.9526 5.156ZM57.4381 18.74C55.9821 18.74 54.7901 18.172 53.8621 17.036C52.9501 15.884 52.4941 14.196 52.4941 11.972C52.4941 9.732 52.9581 8.036 53.8861 6.884C54.8141 5.732 56.0301 5.156 57.5341 5.156C58.1581 5.156 58.7101 5.244 59.1901 5.42C59.6701 5.58 60.0781 5.804 60.4141 6.092C60.7661 6.38 61.0621 6.708 61.3021 7.076H61.4221C61.3741 6.82 61.3181 6.452 61.2541 5.972C61.1901 5.476 61.1581 4.972 61.1581 4.46V0.259999H64.7341V18.5H61.9981L61.3021 16.796H61.1581C60.9341 17.148 60.6461 17.476 60.2941 17.78C59.9581 18.068 59.5581 18.3 59.0941 18.476C58.6301 18.652 58.0781 18.74 57.4381 18.74ZM58.6861 15.884C59.6781 15.884 60.3741 15.596 60.7741 15.02C61.1741 14.428 61.3821 13.548 61.3981 12.38V11.996C61.3981 10.716 61.1981 9.74 60.7981 9.068C60.4141 8.396 59.6941 8.06 58.6381 8.06C57.8541 8.06 57.2381 8.404 56.7901 9.092C56.3421 9.764 56.1181 10.74 56.1181 12.02C56.1181 13.3 56.3421 14.268 56.7901 14.924C57.2381 15.564 57.8701 15.884 58.6861 15.884Z" fill="#F1F1F1"/>
</svg>
