<svg width="103" height="49" viewBox="0 0 103 49" fill="none" xmlns="http://www.w3.org/2000/svg">
<path d="M10.728 12.296C13.056 12.296 14.976 12.584 16.488 13.16C18 13.712 19.128 14.564 19.872 15.716C20.616 16.844 20.988 18.272 20.988 20C20.988 21.176 20.76 22.208 20.304 23.096C19.872 23.96 19.284 24.704 18.54 25.328C17.82 25.928 17.04 26.42 16.2 26.804L23.76 38H17.712L11.592 28.136H8.676V38H3.24V12.296H10.728ZM10.332 16.76H8.676V23.708H10.44C11.64 23.708 12.612 23.576 13.356 23.312C14.1 23.048 14.64 22.652 14.976 22.124C15.312 21.572 15.48 20.912 15.48 20.144C15.48 19.328 15.288 18.68 14.904 18.2C14.544 17.696 13.98 17.336 13.212 17.12C12.468 16.88 11.508 16.76 10.332 16.76ZM31.9376 38H26.5736V10.64H31.9376V38ZM45.6064 17.948C48.2464 17.948 50.2624 18.524 51.6544 19.676C53.0704 20.804 53.7784 22.544 53.7784 24.896V38H50.0344L48.9904 35.336H48.8464C48.2944 36.032 47.7184 36.608 47.1184 37.064C46.5424 37.52 45.8704 37.844 45.1024 38.036C44.3584 38.252 43.4344 38.36 42.3304 38.36C41.1784 38.36 40.1344 38.144 39.1984 37.712C38.2864 37.256 37.5664 36.572 37.0384 35.66C36.5104 34.724 36.2464 33.548 36.2464 32.132C36.2464 30.044 36.9784 28.508 38.4424 27.524C39.9064 26.516 42.1024 25.964 45.0304 25.868L48.4504 25.76V24.896C48.4504 23.864 48.1744 23.108 47.6224 22.628C47.0944 22.148 46.3504 21.908 45.3904 21.908C44.4304 21.908 43.4944 22.052 42.5824 22.34C41.6704 22.604 40.7584 22.94 39.8464 23.348L38.0824 19.712C39.1384 19.16 40.3024 18.728 41.5744 18.416C42.8704 18.104 44.2144 17.948 45.6064 17.948ZM46.3624 28.964C44.6344 29.012 43.4344 29.324 42.7624 29.9C42.0904 30.476 41.7544 31.232 41.7544 32.168C41.7544 32.984 41.9944 33.572 42.4744 33.932C42.9544 34.268 43.5784 34.436 44.3464 34.436C45.4984 34.436 46.4704 34.1 47.2624 33.428C48.0544 32.732 48.4504 31.76 48.4504 30.512V28.892L46.3624 28.964ZM70.4289 17.984C72.5409 17.984 74.2329 18.56 75.5049 19.712C76.7769 20.84 77.4129 22.664 77.4129 25.184V38H72.0489V26.516C72.0489 25.1 71.7969 24.044 71.2929 23.348C70.7889 22.628 69.9849 22.268 68.8809 22.268C67.2489 22.268 66.1329 22.832 65.5329 23.96C64.9329 25.064 64.6329 26.66 64.6329 28.748V38H59.2689V18.344H63.3729L64.0929 20.864H64.3809C64.8129 20.192 65.3409 19.652 65.9649 19.244C66.5889 18.812 67.2849 18.5 68.0529 18.308C68.8209 18.092 69.6129 17.984 70.4289 17.984ZM89.1571 38.36C86.9731 38.36 85.1851 37.508 83.7931 35.804C82.4251 34.076 81.7411 31.544 81.7411 28.208C81.7411 24.848 82.4371 22.304 83.8291 20.576C85.2211 18.848 87.0451 17.984 89.3011 17.984C90.2371 17.984 91.0651 18.116 91.7851 18.38C92.5051 18.62 93.1171 18.956 93.6211 19.388C94.1491 19.82 94.5931 20.312 94.9531 20.864H95.1331C95.0611 20.48 94.9771 19.928 94.8811 19.208C94.7851 18.464 94.7371 17.708 94.7371 16.94V10.64H100.101V38H95.9971L94.9531 35.444H94.7371C94.4011 35.972 93.9691 36.464 93.4411 36.92C92.9371 37.352 92.3371 37.7 91.6411 37.964C90.9451 38.228 90.1171 38.36 89.1571 38.36ZM91.0291 34.076C92.5171 34.076 93.5611 33.644 94.1611 32.78C94.7611 31.892 95.0731 30.572 95.0971 28.82V28.244C95.0971 26.324 94.7971 24.86 94.1971 23.852C93.6211 22.844 92.5411 22.34 90.9571 22.34C89.7811 22.34 88.8571 22.856 88.1851 23.888C87.5131 24.896 87.1771 26.36 87.1771 28.28C87.1771 30.2 87.5131 31.652 88.1851 32.636C88.8571 33.596 89.8051 34.076 91.0291 34.076Z" fill="#575757"/>
</svg>
